<?xml version="1.0" encoding="UTF-8"?>
<svg id="Layer_2" xmlns="http://www.w3.org/2000/svg" xmlns:xlink="http://www.w3.org/1999/xlink" viewBox="0 0 265.05 201.86">
  <defs>
    <style>
      .cls-1 {
        fill: url(#linear-gradient-2);
      }

      .cls-2 {
        fill: url(#linear-gradient-4);
      }

      .cls-3 {
        fill: url(#linear-gradient-3);
      }

      .cls-4 {
        fill: url(#linear-gradient-5);
      }

      .cls-5 {
        fill: url(#linear-gradient);
      }
    </style>
    <linearGradient id="linear-gradient" x1="35.41" y1="67.52" x2="164.37" y2="67.52" gradientUnits="userSpaceOnUse">
      <stop offset="0" stop-color="#c964d8" stop-opacity="0"/>
      <stop offset="1" stop-color="#c964d8"/>
    </linearGradient>
    <linearGradient id="linear-gradient-2" x1="167.13" y1="116.59" x2="265.05" y2="116.59" xlink:href="#linear-gradient"/>
    <linearGradient id="linear-gradient-3" x1="98.82" y1="171.34" x2="162.83" y2="171.34" xlink:href="#linear-gradient"/>
    <linearGradient id="linear-gradient-4" x1="160.11" y1="30.42" x2="238.98" y2="30.42" xlink:href="#linear-gradient"/>
    <linearGradient id="linear-gradient-5" x1="0" y1="146.15" x2="69.65" y2="146.15" xlink:href="#linear-gradient"/>
  </defs>
  <g id="Layer_1-2" data-name="Layer_1">
    <g>
      <path class="cls-5" d="M91.32,8.69c.69-.94,1.47-1.85,2.5-2.38,2.48-1.26,5.44.03,7.91,1.32,6.74,3.51,14.29,8.13,15.24,15.67.54,4.26-1.22,8.86.58,12.76,1.62,3.51,5.76,5.27,9.62,5.27,6.56,0,12.56-4.04,19.12-4.35,7.26-.35,14.43,4.46,17,11.25,2.57,6.8.4,15.07-5.08,19.84-2.66,2.31-6.2,4.16-7.08,7.57-1.22,4.69,3.27,8.65,6.31,12.42,3.9,4.84,5.87,11.2,5.39,17.4-.12,1.53-.4,3.1-1.19,4.42-.71,1.18-1.8,2.09-2.94,2.87-5.69,3.89-13.24,4.9-19.75,2.66-5.95-2.06-11.72-6.71-17.8-5.09-5.68,1.52-8.5,7.73-12.78,11.76-2.64,2.48-5.93,4.18-9.33,5.43-3.74,1.38-7.84,2.28-11.71,1.33s-7.41-4.14-7.7-8.12c-.41-5.62,5.14-9.58,8.38-14.19,1.48-2.1,2.34-5.39.29-6.95-.95-.72-2.23-.79-3.39-1.08-5.8-1.44-8.18-10.02-3.95-14.24,1.25-1.25,3.01-2.34,3.1-4.11.12-2.48-3.05-3.61-5.53-3.81-7.67-.6-15.7.23-22.78-2.8-4.71-2.02-8.58-5.61-11.86-9.54-4.01-4.8-7.35-10.39-8.26-16.57s.96-13.03,5.82-16.95c5.06-4.08,12.39-4.31,18.54-2.25s11.43,6.11,16.57,10.08c1.98,1.53,7.38,7.53,10.37,5.39,2.24-1.6-.6-8.81-.85-11.26-.85-8.24.2-16.93,5.23-23.77Z"/>
      <path class="cls-1" d="M196.33,76.73c-3.7-.21-7.82.73-9.98,3.75-.88,1.24-1.36,2.72-1.62,4.22-.86,4.98.7,10.33,4.12,14.06,1.24,1.35,2.79,2.69,2.92,4.52.15,2.13-1.8,3.88-3.81,4.6s-4.22.8-6.22,1.57-3.86,2.64-3.56,4.76c.18,1.26,1.07,2.27,1.73,3.36,2.57,4.24,1.58,9.83-.77,14.19s-5.89,7.97-8.67,12.08c-1.97,2.93-3.6,6.32-3.3,9.84.36,4.24,3.56,7.86,7.39,9.73s8.21,2.25,12.47,2.25c2.53,0,5.25-.2,7.21-1.78,1.81-1.46,2.6-3.8,3.4-5.98,1.52-4.15,4.07-8.74,8.45-9.32,4.05-.54,7.52,2.63,11.18,4.43,2.99,1.47,6.32,2.06,9.6,2.64,3.1.55,6.74.94,8.99-1.28,2.22-2.2,1.9-5.78,1.78-8.9-.18-4.69.93-10.13,5.07-12.33,1.69-.9,3.65-1.11,5.49-1.65s3.73-1.59,4.37-3.4c.61-1.72-.12-3.69-1.38-5.01s-2.96-2.11-4.65-2.8c-2.25-.92-4.56-1.72-6.89-2.4-2.55-.74-5.28-1.39-7.18-3.25-2.63-2.57-2.79-7.25-.34-9.99,1.56-1.75,3.86-2.62,6.1-3.33,8.23-2.61,17.41-4.1,23.43-10.3,2.63-2.71,4.46-6.93,2.62-10.23-1.08-1.93-3.14-3.05-5.1-4.08-3.88-2.03-7.76-4.06-11.64-6.09-1.93-1.01-3.88-2.02-5.98-2.58-4.47-1.18-9.2-.19-13.72.8-1.74.38-3.54.79-4.97,1.86-1.41,1.05-2.3,2.63-3.15,4.17-1.51,2.72-2.88,5.65-4.59,8.24-2.25,3.41-2.71,1.19-5.23-.94-3.79-3.2-8.62-5.19-13.59-5.47Z"/>
      <path class="cls-3" d="M104.69,150.7c-.62.37-1.24.78-1.65,1.37-.84,1.21-.58,2.85-.16,4.26.79,2.64,2.04,5.14,3.67,7.36.73.99,1.55,1.97,1.79,3.17.25,1.28-.22,2.59-.72,3.8-1.65,3.96-3.77,7.74-6.29,11.21-.94,1.3-1.96,2.6-2.34,4.15-.57,2.29.38,4.75,1.93,6.53s3.62,3.01,5.68,4.16c2.43,1.36,4.96,2.67,7.71,3.04,4.76.63,9.35-1.63,13.96-2.97,5.97-1.73,12.75-1.82,18.04,1.42,2.09,1.28,3.98,3.08,6.4,3.54,2.73.51,5.57-.92,7.3-3.1s2.47-4.98,2.73-7.75c.19-2,.14-4.07-.56-5.96-1.55-4.18-5.83-6.58-9.81-8.58s-8.3-4.25-10.07-8.34c-1.59-3.67-.71-7.88-.03-11.82s.99-8.38-1.43-11.57c-2.17-2.86-6.06-3.91-9.65-3.8-5.06.15-9.68,2.22-14.17,4.37-4.07,1.95-8.45,3.15-12.34,5.49Z"/>
      <path class="cls-2" d="M177.43,7.35c-3.31.47-6.48,1.59-9.63,2.7-1.54.54-3.1,1.1-4.41,2.08-2.19,1.64-3.44,4.44-3.26,7.16s1.79,5.31,4.13,6.73c2.17,1.31,4.77,1.62,7.25,2.11,2.37.47,4.69,1.13,7.02,1.79.62.18,1.27.37,1.7.86.38.43.51,1.02.62,1.59.58,3.04.75,6.15.52,9.23-.15,1.94-.45,3.9-.25,5.84.26,2.57,1.39,4.97,2.51,7.3.63,1.33,1.28,2.68,2.32,3.72,2.52,2.54,6.57,2.61,10.13,2.22,2.94-.32,5.95-.86,8.46-2.43,1.53-.96,2.81-2.27,4.27-3.35,1.79-1.32,3.85-2.29,6.05-2.64,2.42-.39,4.89-.04,7.34.03,4.94.14,10.15-1.03,13.77-4.38,3.63-3.36,5.13-9.25,2.52-13.44-1.52-2.44-4.15-4-5.77-6.37-1.8-2.63-2.18-6-1.95-9.18s1.02-6.3,1.34-9.47c.15-1.54.18-3.16-.44-4.58-1.47-3.32-5.71-4.18-9.33-4.47-1.72-.14-3.44-.26-5.17-.34-.76-.04-1.54-.07-2.24.22-.8.32-1.39,1.01-1.94,1.67-4.01,4.8-8.36,9.91-14.41,11.51-2.37.63-4.95.65-7.21-.27-2.62-1.07-3.17-3.45-5.2-4.94-2.17-1.59-6.26-1.22-8.74-.87Z"/>
      <path class="cls-4" d="M31.7,110.07c-2.72.28-6.03,1.35-6.4,4.06-.25,1.84,1.06,3.47,2.14,4.98s2.03,3.54,1.08,5.13c-4.95,2.27-10.68,1.67-16.08,2.34s-11.42,3.56-12.33,8.93c-.48,2.79.62,5.71,2.52,7.82s4.51,3.47,7.22,4.28c2,.6,4.11.93,5.96,1.89,4.64,2.39,6.54,7.88,8.46,12.74s5.05,10.15,10.22,10.85c2.41.32,4.85-.45,7.27-.18,7.58.85,11.69,11.28,19.31,11.25,4.24-.01,7.92-3.79,8.49-7.99s-1.58-8.48-4.87-11.15c-2.09-1.7-4.62-2.85-6.57-4.7s-3.28-4.84-2.08-7.26c1.58-3.21,6.23-3.34,8.75-5.88,1.62-1.63,2.14-4.09,2.04-6.39s-.74-4.54-1.12-6.81c-.82-4.92-.4-9.94-.31-14.92.04-2.19,0-4.44-.76-6.49s-2.43-3.9-4.59-4.31c-2.22-.42-4.4.7-6.38,1.79-3.26,1.79-7.15,5.42-10.67,3.28-4.06-2.48-6.16-3.76-11.29-3.25Z"/>
    </g>
  </g>
</svg>