<?xml version="1.0" encoding="UTF-8"?>
<svg id="Layer_1" xmlns="http://www.w3.org/2000/svg" viewBox="0 0 553.35 229.75">
  <defs>
    <style>
      .cls-1 {
        fill: #d86464;
      }
    </style>
  </defs>
  <path class="cls-1" d="M89.37,11.9c122.28-3.5,276.85-4.87,399.75-5.48,0,0,66.62-.15,66.62-.15,22.35,0,44.56-1,66.62,5.63,0,0,0,.8,0,.8-22.06,6.63-44.27,5.63-66.62,5.63,0,0-66.62-.15-66.62-.15-109.95-.47-257.02-1.94-366.44-4.56,0,0-33.31-.92-33.31-.92v-.8h0Z"/>
  <path class="cls-1" d="M44.77,41.2c122.28-3.5,276.85-4.87,399.75-5.48,0,0,66.62-.15,66.62-.15,22.35,0,44.56-1,66.62,5.63,0,0,0,.8,0,.8-22.06,6.63-44.27,5.63-66.62,5.63,0,0-66.62-.15-66.62-.15-109.95-.47-257.02-1.94-366.44-4.56,0,0-33.31-.92-33.31-.92v-.8h0Z"/>
  <path class="cls-1" d="M89.37,70.49c122.28-3.5,276.85-4.87,399.75-5.48,0,0,66.62-.15,66.62-.15,22.35,0,44.56-1,66.62,5.63,0,0,0,.8,0,.8-22.06,6.63-44.27,5.63-66.62,5.63,0,0-66.62-.15-66.62-.15-109.95-.47-257.02-1.94-366.44-4.56,0,0-33.31-.92-33.31-.92v-.8h0Z"/>
  <path class="cls-1" d="M44.77,99.78c122.28-3.5,276.85-4.87,399.75-5.48,0,0,66.62-.15,66.62-.15,22.35,0,44.56-1,66.62,5.63,0,0,0,.8,0,.8-22.06,6.63-44.27,5.63-66.62,5.63,0,0-66.62-.15-66.62-.15-109.95-.47-257.02-1.94-366.44-4.56,0,0-33.31-.92-33.31-.92v-.8h0Z"/>
  <path class="cls-1" d="M89.37,129.07c122.28-3.5,276.85-4.87,399.75-5.48,0,0,66.62-.15,66.62-.15,22.35,0,44.56-1,66.62,5.63,0,0,0,.8,0,.8-22.06,6.63-44.27,5.63-66.62,5.63,0,0-66.62-.15-66.62-.15-109.95-.47-257.02-1.94-366.44-4.56,0,0-33.31-.92-33.31-.92v-.8h0Z"/>
  <path class="cls-1" d="M44.77,158.37c122.28-3.5,276.85-4.87,399.75-5.48,0,0,66.62-.15,66.62-.15,22.35,0,44.56-1,66.62,5.63,0,0,0,.8,0,.8-22.06,6.63-44.27,5.63-66.62,5.63,0,0-66.62-.15-66.62-.15-109.95-.47-257.02-1.94-366.44-4.56,0,0-33.31-.92-33.31-.92v-.8h0Z"/>
  <path class="cls-1" d="M89.37,187.66c122.28-3.5,276.85-4.87,399.75-5.48,0,0,66.62-.15,66.62-.15,22.35,0,44.56-1,66.62,5.63,0,0,0,.8,0,.8-22.06,6.63-44.27,5.62-66.62,5.63,0,0-66.62-.15-66.62-.15-109.95-.47-257.02-1.94-366.44-4.56,0,0-33.31-.92-33.31-.92v-.8h0Z"/>
  <path class="cls-1" d="M44.77,216.95c122.28-3.5,276.85-4.87,399.75-5.48,0,0,66.62-.15,66.62-.15,22.35,0,44.56-1,66.62,5.63,0,0,0,.8,0,.8-22.06,6.63-44.27,5.62-66.62,5.63,0,0-66.62-.15-66.62-.15-109.95-.47-257.02-1.94-366.44-4.56,0,0-33.31-.92-33.31-.92v-.8h0Z"/>
</svg>