<?xml version="1.0" encoding="UTF-8"?>
<svg id="Layer_2" xmlns="http://www.w3.org/2000/svg" xmlns:xlink="http://www.w3.org/1999/xlink" viewBox="0 0 457.49 130.35">
  <defs>
    <style>
      .cls-1 {
        fill: url(#linear-gradient-2);
      }

      .cls-2 {
        fill: url(#linear-gradient-4);
      }

      .cls-3 {
        fill: url(#linear-gradient-3);
      }

      .cls-4 {
        fill: url(#linear-gradient-5);
      }

      .cls-5 {
        fill: url(#linear-gradient-8);
      }

      .cls-6 {
        fill: url(#linear-gradient-7);
      }

      .cls-7 {
        fill: url(#linear-gradient-6);
      }

      .cls-8 {
        fill: url(#linear-gradient);
      }
    </style>
    <linearGradient id="linear-gradient" x1="35.32" y1="3.65" x2="457.49" y2="3.65" gradientUnits="userSpaceOnUse">
      <stop offset="0" stop-color="#d86464" stop-opacity="0"/>
      <stop offset="1" stop-color="#d86464"/>
    </linearGradient>
    <linearGradient id="linear-gradient-2" x1="0" y1="21.23" x2="422.17" y2="21.23" xlink:href="#linear-gradient"/>
    <linearGradient id="linear-gradient-3" y1="38.81" y2="38.81" xlink:href="#linear-gradient"/>
    <linearGradient id="linear-gradient-4" x1="0" y1="56.39" x2="422.17" y2="56.39" xlink:href="#linear-gradient"/>
    <linearGradient id="linear-gradient-5" y1="73.97" y2="73.97" xlink:href="#linear-gradient"/>
    <linearGradient id="linear-gradient-6" x1="0" y1="91.55" x2="422.17" y2="91.55" xlink:href="#linear-gradient"/>
    <linearGradient id="linear-gradient-7" x1="35.32" y1="109.13" y2="109.13" xlink:href="#linear-gradient"/>
    <linearGradient id="linear-gradient-8" x1="0" y1="126.71" x2="422.17" y2="126.71" xlink:href="#linear-gradient"/>
  </defs>
  <g id="Layer_1-2" data-name="Layer_1">
    <g>
      <path class="cls-8" d="M35.32,3.41C132.18,1.31,254.6.49,351.95.12c0,0,52.77-.09,52.77-.09,17.7,0,35.29-.6,52.77,3.38,0,0,0,.48,0,.48-17.48,3.98-35.07,3.38-52.77,3.38,0,0-52.77-.09-52.77-.09-87.09-.28-203.57-1.16-290.24-2.74,0,0-26.39-.55-26.39-.55v-.48h0Z"/>
      <path class="cls-1" d="M0,20.99c96.85-2.1,219.28-2.92,316.63-3.29,0,0,52.77-.09,52.77-.09,17.7,0,35.29-.6,52.77,3.38,0,0,0,.48,0,.48-17.48,3.98-35.07,3.38-52.77,3.38,0,0-52.77-.09-52.77-.09-87.09-.28-203.57-1.16-290.24-2.74C26.39,22.02,0,21.47,0,21.47c0,0,0-.48,0-.48H0Z"/>
      <path class="cls-3" d="M35.32,38.57c96.85-2.1,219.28-2.92,316.63-3.29,0,0,52.77-.09,52.77-.09,17.7,0,35.29-.6,52.77,3.38,0,0,0,.48,0,.48-17.48,3.98-35.07,3.38-52.77,3.38,0,0-52.77-.09-52.77-.09-87.09-.28-203.57-1.16-290.24-2.74,0,0-26.39-.55-26.39-.55v-.48h0Z"/>
      <path class="cls-2" d="M0,56.15c96.85-2.1,219.28-2.92,316.63-3.29,0,0,52.77-.09,52.77-.09,17.7,0,35.29-.6,52.77,3.38,0,0,0,.48,0,.48-17.48,3.98-35.07,3.38-52.77,3.38,0,0-52.77-.09-52.77-.09-87.09-.28-203.57-1.16-290.24-2.74C26.39,57.18,0,56.63,0,56.63c0,0,0-.48,0-.48H0Z"/>
      <path class="cls-4" d="M35.32,73.73c96.85-2.1,219.28-2.92,316.63-3.29,0,0,52.77-.09,52.77-.09,17.7,0,35.29-.6,52.77,3.38,0,0,0,.48,0,.48-17.48,3.98-35.07,3.38-52.77,3.38,0,0-52.77-.09-52.77-.09-87.09-.28-203.57-1.16-290.24-2.74,0,0-26.39-.55-26.39-.55v-.48h0Z"/>
      <path class="cls-7" d="M0,91.31c96.85-2.1,219.28-2.92,316.63-3.29,0,0,52.77-.09,52.77-.09,17.7,0,35.29-.6,52.77,3.38,0,0,0,.48,0,.48-17.48,3.98-35.07,3.38-52.77,3.38,0,0-52.77-.09-52.77-.09-87.09-.28-203.57-1.16-290.24-2.74C26.39,92.34,0,91.79,0,91.79v-.48H0Z"/>
      <path class="cls-6" d="M35.32,108.89c96.85-2.1,219.28-2.92,316.63-3.29,0,0,52.77-.09,52.77-.09,17.7,0,35.29-.6,52.77,3.38,0,0,0,.48,0,.48-17.48,3.98-35.07,3.38-52.77,3.38,0,0-52.77-.09-52.77-.09-87.09-.28-203.57-1.16-290.24-2.74,0,0-26.39-.55-26.39-.55,0,0,0-.48,0-.48h0Z"/>
      <path class="cls-5" d="M0,126.47c96.85-2.1,219.28-2.92,316.63-3.29,0,0,52.77-.09,52.77-.09,17.7,0,35.29-.6,52.77,3.38,0,0,0,.48,0,.48-17.48,3.98-35.07,3.38-52.77,3.38,0,0-52.77-.09-52.77-.09-87.09-.28-203.57-1.16-290.24-2.74C26.39,127.5,0,126.94,0,126.94c0,0,0-.48,0-.48H0Z"/>
    </g>
  </g>
</svg>