<?xml version="1.0" encoding="UTF-8"?>
<svg id="Layer_1" xmlns="http://www.w3.org/2000/svg" viewBox="0 0 966.74 229.75">
  <defs>
    <style>
      .cls-1 {
        fill: #d86464;
      }
    </style>
  </defs>
  <path class="cls-1" d="M165.3,11.9c210.29-3.5,476.1-4.87,687.46-5.48,0,0,114.58-.15,114.58-.15,38.44,0,76.63-1,114.58,5.63,0,0,0,.8,0,.8-37.95,6.63-76.14,5.63-114.58,5.63,0,0-114.58-.15-114.58-.15-189.08-.47-442-1.94-630.17-4.56,0,0-57.29-.92-57.29-.92v-.8h0Z"/>
  <path class="cls-1" d="M88.61,41.2c210.29-3.5,476.1-4.87,687.46-5.48,0,0,114.58-.15,114.58-.15,38.44,0,76.63-1,114.58,5.63,0,0,0,.8,0,.8-37.95,6.63-76.14,5.63-114.58,5.63,0,0-114.58-.15-114.58-.15-189.08-.47-442-1.94-630.17-4.56,0,0-57.29-.92-57.29-.92v-.8h0Z"/>
  <path class="cls-1" d="M165.3,70.49c210.29-3.5,476.1-4.87,687.46-5.48,0,0,114.58-.15,114.58-.15,38.44,0,76.63-1,114.58,5.63,0,0,0,.8,0,.8-37.95,6.63-76.14,5.63-114.58,5.63,0,0-114.58-.15-114.58-.15-189.08-.47-442-1.94-630.17-4.56,0,0-57.29-.92-57.29-.92v-.8h0Z"/>
  <path class="cls-1" d="M88.61,99.78c210.29-3.5,476.1-4.87,687.46-5.48,0,0,114.58-.15,114.58-.15,38.44,0,76.63-1,114.58,5.63,0,0,0,.8,0,.8-37.95,6.63-76.14,5.63-114.58,5.63,0,0-114.58-.15-114.58-.15-189.08-.47-442-1.94-630.17-4.56,0,0-57.29-.92-57.29-.92v-.8h0Z"/>
  <path class="cls-1" d="M165.3,129.07c210.29-3.5,476.1-4.87,687.46-5.48,0,0,114.58-.15,114.58-.15,38.44,0,76.63-1,114.58,5.63,0,0,0,.8,0,.8-37.95,6.63-76.14,5.63-114.58,5.63,0,0-114.58-.15-114.58-.15-189.08-.47-442-1.94-630.17-4.56,0,0-57.29-.92-57.29-.92v-.8h0Z"/>
  <path class="cls-1" d="M88.61,158.37c210.29-3.5,476.1-4.87,687.46-5.48,0,0,114.58-.15,114.58-.15,38.44,0,76.63-1,114.58,5.63,0,0,0,.8,0,.8-37.95,6.63-76.14,5.63-114.58,5.63,0,0-114.58-.15-114.58-.15-189.08-.47-442-1.94-630.17-4.56,0,0-57.29-.92-57.29-.92v-.8h0Z"/>
  <path class="cls-1" d="M165.3,187.66c210.29-3.5,476.1-4.87,687.46-5.48,0,0,114.58-.15,114.58-.15,38.44,0,76.63-1,114.58,5.63,0,0,0,.8,0,.8-37.95,6.63-76.14,5.62-114.58,5.63,0,0-114.58-.15-114.58-.15-189.08-.47-442-1.94-630.17-4.56,0,0-57.29-.92-57.29-.92v-.8h0Z"/>
  <path class="cls-1" d="M88.61,216.95c210.29-3.5,476.1-4.87,687.46-5.48,0,0,114.58-.15,114.58-.15,38.44,0,76.63-1,114.58,5.63,0,0,0,.8,0,.8-37.95,6.63-76.14,5.62-114.58,5.63,0,0-114.58-.15-114.58-.15-189.08-.47-442-1.94-630.17-4.56,0,0-57.29-.92-57.29-.92v-.8h0Z"/>
</svg>