<?xml version="1.0" encoding="UTF-8"?>
<svg id="Layer_1" xmlns="http://www.w3.org/2000/svg" viewBox="0 0 378.32 128.93">
  <defs>
    <style>
      .cls-1 {
        fill: #d8aa64;
      }
    </style>
  </defs>
  <path class="cls-1" d="M378.32,118.06h-47.34l29.47-29.47,17.87,17.87v-10.98l-10.53-10.53h10.53v-10.87H63.98v10.87h43.62l-33.1,33.1h-10.52v10.87h314.34v-10.87ZM85.48,118.06l29.47-29.47,29.47,29.47h-58.93ZM155.39,118.06l-33.1-33.1h67.14l-33.1,33.1h-.94ZM167.31,118.06l29.47-29.47,29.47,29.47h-58.93ZM237.22,118.06l-33.1-33.1h67.14l-33.1,33.1h-.94ZM249.14,118.06l29.47-29.47,29.47,29.47h-58.93ZM319.06,118.06l-33.1-33.1h67.14l-33.1,33.1h-.94Z"/>
  <path class="cls-1" d="M378.32,43.97h-29.49l29.47-29.47.02.02V0H0v10.87h43.62L10.52,43.97H0v10.87h378.32v-10.87ZM21.5,43.97l29.47-29.47,29.47,29.47H21.5ZM91.41,43.97L58.31,10.87h67.14l-33.1,33.1h-.94ZM103.33,43.97l29.47-29.47,29.47,29.47h-58.93ZM173.25,43.97l-33.1-33.1h67.14l-33.1,33.1h-.94ZM185.17,43.97l29.47-29.47,29.47,29.47h-58.93ZM255.08,43.97l-33.1-33.1h67.14l-33.1,33.1h-.94ZM267,43.97l29.47-29.47,29.47,29.47h-58.93ZM336.91,43.97l-33.1-33.1h67.14l-33.1,33.1h-.94Z"/>
</svg>