<?xml version="1.0" encoding="UTF-8"?>
<svg id="Layer_2" xmlns="http://www.w3.org/2000/svg" viewBox="0 0 366.77 83.02">
  <defs>
    <style>
      .cls-1 {
        fill: #d8aa64;
      }
    </style>
  </defs>
  <g id="Layer_1-2" data-name="Layer_1">
    <path class="cls-1" d="M325.57,7V0H0v7h28.09L6.78,28.31H0v7h325.57v-7h-3.24l-21.31-21.31h24.55ZM90.24,7h43.23l-21.31,21.31h-.61l-21.31-21.31ZM104.49,28.31h-37.95l18.97-18.97,18.97,18.97ZM138.21,9.34l18.97,18.97h-37.95l18.97-18.97ZM142.94,7h43.24l-21.31,21.31h-.61l-21.32-21.31ZM190.9,9.34l18.97,18.97h-37.95l18.97-18.97ZM217.55,28.31h-.61l-21.31-21.31h43.23l-21.31,21.31ZM243.59,9.34l18.97,18.97h-37.95l18.97-18.97ZM80.78,7l-21.31,21.31h-.61L37.55,7h43.23ZM32.82,9.34l18.97,18.97H13.85l18.97-18.97ZM277.31,28.31l18.97-18.97,18.97,18.97h-37.95ZM270.24,28.31h-.61l-21.32-21.31h43.24l-21.31,21.31Z"/>
    <path class="cls-1" d="M366.77,54.71v-7H41.2v7h28.09l-21.31,21.31h-6.77v7h325.57v-7h-3.23l-21.31-21.31h24.55ZM131.44,54.71h43.23l-21.31,21.31h-.6l-21.31-21.31ZM145.69,76.02h-37.95l18.97-18.97,18.97,18.97ZM179.4,57.05l18.97,18.97h-37.95l18.97-18.97ZM184.14,54.71h43.23l-21.31,21.31h-.6l-21.31-21.31ZM232.1,57.05l18.97,18.97h-37.95l18.97-18.97ZM258.75,76.02h-.6l-21.31-21.31h43.23l-21.31,21.31ZM284.79,57.05l18.97,18.97h-37.95l18.97-18.97ZM121.98,54.71l-21.31,21.31h-.6l-21.31-21.31h43.23ZM74.02,57.05l18.97,18.97h-37.95l18.97-18.97ZM318.51,76.02l18.97-18.97,18.97,18.97h-37.95ZM311.44,76.02h-.6l-21.31-21.31h43.23l-21.31,21.31Z"/>
  </g>
</svg>